<svg width="272" height="249" viewBox="0 0 272 249" fill="none" xmlns="http://www.w3.org/2000/svg">
<g clip-path="url(#clip0_3:125)">
<path opacity="0.997" fill-rule="evenodd" clip-rule="evenodd" d="M202.832 27.0072C202.285 34.8273 200.548 42.3729 197.622 49.6439C197.044 50.6884 196.385 51.6464 195.646 52.5184C195.797 51.5034 195.437 50.7251 194.568 50.1829C160.194 50.0032 125.82 49.9432 91.4452 50.0032C91.1419 48.7101 91.0223 47.3925 91.0859 46.0508C112.754 47.0332 134.433 47.4525 156.122 47.3084C166.997 47.3479 177.776 46.3896 188.46 44.4339C191.321 43.8748 193.298 42.2579 194.388 39.5832C196.198 34.5965 197.276 29.4463 197.622 24.1327C198.059 18.512 198.239 12.8827 198.161 7.24498C200.395 6.03129 202.252 4.35452 203.731 2.2146C203.017 10.4515 202.718 18.7157 202.832 27.0072Z" fill="#34244C"/>
<path opacity="0.991" fill-rule="evenodd" clip-rule="evenodd" d="M198.161 7.24499C198.239 12.8828 198.059 18.512 197.622 24.1327C197.276 29.4463 196.198 34.5965 194.388 39.5832C193.297 42.2579 191.321 43.8748 188.46 44.4339C177.776 46.3896 166.996 47.3479 156.121 47.3084C134.433 47.4525 112.754 47.0332 91.0858 46.0508C88.9971 35.8457 91.9316 27.4617 99.889 20.8989C100.042 22.6379 99.9824 24.3746 99.7093 26.1089C99.8157 28.3651 100.115 30.5808 100.608 32.7562C110.478 19.2256 123.593 10.6021 139.952 6.88568C140.192 7.00544 140.431 7.12524 140.671 7.24499C137.117 11.0005 134.482 15.3123 132.766 20.1803C132.696 20.9796 132.996 21.5785 133.664 21.9768C144.726 17.235 156.224 14.0012 168.158 12.2754C175.522 11.3414 182.888 10.4431 190.256 9.58053C192.935 8.91138 195.57 8.13289 198.161 7.24499Z" fill="#3F2C50"/>
<path fill-rule="evenodd" clip-rule="evenodd" d="M202.832 27.0072C204.544 30.351 205.322 33.9442 205.168 37.7866C218.133 33.2129 229.272 35.9676 238.584 46.0508C244.384 53.7211 245.342 61.9853 241.458 70.8434C240.116 73.1444 238.499 75.2403 236.608 77.1314C249.193 77.0998 258.236 82.6691 263.736 93.8394C267.087 102.948 265.53 111.092 259.065 118.273C254.25 122.908 249.639 127.698 245.231 132.645C242.538 130.012 239.783 127.437 236.967 124.92C236.248 124.68 235.53 124.68 234.811 124.92C232.947 126.963 231.151 129.059 229.421 131.208C229.593 131.722 229.832 132.201 230.14 132.645C237.871 140.077 245.656 147.443 253.495 154.743C254.214 154.983 254.933 154.983 255.651 154.743C257.52 152.995 259.256 151.138 260.861 149.174C261.101 148.575 261.101 147.976 260.861 147.377C256.778 143.592 252.765 139.76 248.824 135.879C255.852 137.326 261.781 140.679 266.61 145.94C272.601 154.956 272.96 164.178 267.688 173.607C252.931 193.409 239.517 214.13 227.445 235.768C217.073 245.675 205.276 247.771 192.053 242.056C188.349 240.27 185.295 237.695 182.89 234.331C172.798 241.743 161.599 246.535 149.295 248.703C146.061 248.703 142.827 248.703 139.593 248.703C128.486 247.311 120.521 241.562 115.699 231.456C113.632 225.343 113.572 219.234 115.519 213.131C137.318 213.131 159.116 213.131 180.914 213.131C180.794 212.413 180.674 211.694 180.555 210.975C181.992 210.975 183.429 210.975 184.867 210.975C187.299 213.228 189.695 215.564 192.053 217.982C192.755 218.569 193.533 218.988 194.388 219.24C194.688 219.18 194.987 219.12 195.287 219.06C196.982 217.169 198.718 215.313 200.497 213.491C200.796 212.531 200.616 211.693 199.958 210.975C200.796 210.975 201.635 210.975 202.473 210.975C203.828 212.15 205.146 213.407 206.425 214.748C207.144 214.988 207.863 214.988 208.581 214.748C210.786 212.184 213.121 209.729 215.588 207.382C215.828 206.664 215.828 205.945 215.588 205.226C211.384 201.322 207.252 197.369 203.192 193.369C202.99 192.042 202.751 190.725 202.473 189.417C203.671 188.458 204.748 187.38 205.707 186.183C206.832 187.128 207.91 188.145 208.941 189.237C212.479 191.453 215.953 191.333 219.361 188.878C225.226 184.387 229.537 178.698 232.296 171.81C231.193 168.679 229.516 165.924 227.266 163.546C229.288 161.044 231.444 158.648 233.733 156.36C238.212 160.418 242.643 164.55 247.028 168.756C247.827 169.379 248.665 169.918 249.543 170.373C252.521 168.054 255.215 165.42 257.628 162.468C257.867 161.75 257.867 161.031 257.628 160.312C246.429 149.832 235.23 139.353 224.032 128.872C222.79 128.469 221.772 128.768 220.978 129.771C219.193 131.915 217.276 133.951 215.229 135.879C214.735 136.668 214.616 137.506 214.869 138.394C219.802 143.149 224.773 147.82 229.781 152.407C227.256 154.693 224.86 157.088 222.594 159.594C222.274 159.375 221.915 159.255 221.517 159.234C215.573 155.286 209.704 155.466 203.91 159.773C201.502 162.363 201.143 165.177 202.832 168.217C201.681 170.523 200.723 172.918 199.958 175.404C200.8 177.328 201.639 179.244 202.473 181.153C202.114 181.751 201.635 182.23 201.036 182.59C199.688 176.065 196.993 170.196 192.951 164.983C193.202 162.48 193.501 159.965 193.849 157.438C193.412 148.257 188.741 142.508 179.836 140.191C180.1 139.757 180.22 139.278 180.196 138.754C177.347 138.042 174.473 137.443 171.572 136.957C182.875 129.687 190.541 119.627 194.568 106.775C194.537 106.417 194.657 106.118 194.927 105.876C201.401 105.151 205.773 101.737 208.042 95.636C209.986 87.7347 207.531 81.6864 200.676 77.4907C199.082 76.7329 197.406 76.3136 195.646 76.2331C194.697 75.5608 194.218 74.6025 194.209 73.3586C194.788 73.1991 195.208 72.8397 195.466 72.2806C195.646 65.6944 195.706 59.1068 195.646 52.5184C196.385 51.6464 197.044 50.6884 197.622 49.6439C200.548 42.3729 202.285 34.8273 202.832 27.0072Z" fill="#275ED1"/>
<path opacity="0.999" fill-rule="evenodd" clip-rule="evenodd" d="M91.4452 50.0033C125.82 49.9433 160.194 50.0033 194.568 50.1829C195.437 50.7251 195.797 51.5034 195.646 52.5185C195.706 59.1068 195.646 65.6945 195.466 72.2807C195.208 72.8398 194.788 73.1991 194.209 73.3586C193.969 73.3586 193.73 73.3586 193.49 73.3586C190.975 73.3586 188.46 73.3586 185.945 73.3586C181.154 73.3586 176.363 73.3586 171.572 73.3586C170.553 72.4905 169.356 72.1312 167.979 72.2807C165.825 72.6389 163.669 72.9982 161.511 73.3586C150.253 73.3586 138.994 73.3586 127.736 73.3586C124.377 72.092 120.904 71.6727 117.316 72.101C116.767 72.4718 116.288 72.8912 115.878 73.3586C111.567 73.3586 107.255 73.3586 102.943 73.3586C99.4697 73.3586 95.9966 73.3586 92.5231 73.3586C92.2835 73.3586 92.0441 73.3586 91.8045 73.3586C91.2594 73.3547 90.8401 73.1154 90.5469 72.64C90.3672 69.768 90.3076 66.8935 90.3672 64.0165C90.3072 59.5833 90.3672 55.1519 90.5469 50.7219C90.8013 50.4054 91.101 50.1661 91.4452 50.0033Z" fill="#0071BF"/>
<path fill-rule="evenodd" clip-rule="evenodd" d="M90.3672 64.0165C90.3075 66.8935 90.3672 69.768 90.5469 72.64C90.84 73.1154 91.2594 73.3547 91.8044 73.3586C91.6388 74.0952 91.3991 74.8138 91.0858 75.5145C78.986 78.2097 74.6145 85.5156 77.9709 97.4326C80.8131 102.599 85.1848 105.473 91.0858 106.056C95.0652 118.945 102.611 129.125 113.723 136.598C110.75 137.371 107.756 138.089 104.74 138.754C104.716 139.278 104.835 139.757 105.099 140.191C93.1105 144.103 88.7988 152.188 92.1638 164.444C87.8973 169.925 85.0228 176.093 83.5402 182.949C83.071 182.24 82.472 181.642 81.7437 181.153C82.7199 179.304 83.5582 177.388 84.2589 175.404C83.6153 173.16 82.7767 171.004 81.7437 168.936C83.6495 162.632 81.3739 158.62 74.9167 156.899C70.4286 155.748 66.3565 156.526 62.7001 159.234C62.3016 159.255 61.9423 159.375 61.6221 159.594C59.3466 157.198 57.0707 154.803 54.7952 152.407C59.5744 147.689 64.4251 143.018 69.3474 138.394C69.587 137.676 69.587 136.957 69.3474 136.238C66.8807 133.892 64.5452 131.437 62.3408 128.872C61.6221 128.633 60.9035 128.633 60.1849 128.872C48.8777 139.341 37.679 149.94 26.5891 160.672C26.3496 161.271 26.3496 161.869 26.5891 162.468C28.8832 164.958 31.2187 167.413 33.5957 169.834C34.4341 170.553 35.2725 170.553 36.1109 169.834C40.8549 165.269 45.6456 160.778 50.4834 156.36C52.7701 158.646 54.926 161.041 56.9511 163.546C54.8225 166.003 53.1456 168.758 51.9207 171.81C54.7974 178.579 59.1091 184.268 64.856 188.878C68.2709 191.297 71.7444 191.417 75.276 189.237C76.5333 188.376 77.6112 187.358 78.5099 186.183C79.5781 187.491 80.7757 188.688 82.103 189.776C81.9366 190.848 81.817 191.925 81.7437 193.01C77.3252 197.008 72.9534 201.08 68.6288 205.227C68.5687 205.526 68.5091 205.825 68.4491 206.125C68.701 206.98 69.1199 207.759 69.7067 208.46C71.8144 210.448 73.7906 212.544 75.6354 214.748C76.354 214.988 77.0726 214.988 77.7912 214.748C79.1354 213.485 80.453 212.227 81.7437 210.976C82.582 210.976 83.4206 210.976 84.2589 210.976C83.4522 211.894 83.3926 212.852 84.0792 213.85C85.6649 215.254 87.0425 216.811 88.2113 218.521C76.9839 220.604 66.3241 218.987 56.2324 213.67C49.2291 209.07 45.5159 202.543 45.0937 194.088C33.1621 194.078 23.281 189.646 15.4504 180.793C11.5971 174.208 10.639 167.261 12.5759 159.953C13.5996 157.906 14.6176 155.87 15.6301 153.845C10.0722 150.742 5.94011 146.311 3.23377 140.55C-0.331878 129.211 2.48274 119.809 11.6776 112.344C24.5292 105.979 37.1051 99.1519 49.4055 91.8632C63.4101 83.0637 77.064 73.7815 90.3672 64.0165Z" fill="#275ED1"/>
<path fill-rule="evenodd" clip-rule="evenodd" d="M127.736 73.3586C127.859 73.6597 128.098 73.7798 128.454 73.7179C131.513 75.3999 134.208 77.5558 136.539 80.1856C137.013 83.783 135.516 85.0406 132.048 83.9584C127.828 79.5967 122.678 77.3211 116.597 77.1314C115.964 75.9662 115.724 74.7086 115.878 73.3586C116.288 72.8912 116.767 72.4719 117.316 72.101C120.904 71.6727 124.377 72.0921 127.736 73.3586Z" fill="#151414"/>
<path fill-rule="evenodd" clip-rule="evenodd" d="M171.572 73.3587C172.785 75.4844 172.306 77.1013 170.135 78.2094C164.187 78.2489 159.277 80.5245 155.403 85.0363C152.229 85.4557 150.851 84.0781 151.271 80.9042C153.907 77.8443 157.081 75.5685 160.793 74.0773C161.152 73.9577 161.392 73.718 161.511 73.3587C163.669 72.9983 165.825 72.639 167.979 72.2807C169.356 72.1313 170.553 72.4906 171.572 73.3587Z" fill="#151515"/>
<path fill-rule="evenodd" clip-rule="evenodd" d="M91.8045 73.3586C92.0442 73.3586 92.2835 73.3586 92.5232 73.3586C92.4003 80.4447 92.6999 87.5113 93.4214 94.5581C96.5945 87.4933 99.7684 80.4267 102.943 73.3586C107.255 73.3586 111.567 73.3586 115.879 73.3586C115.724 74.7086 115.964 75.9662 116.597 77.1314C122.678 77.3211 127.828 79.5967 132.048 83.9584C135.516 85.0406 137.013 83.783 136.539 80.1856C134.208 77.5558 131.513 75.3999 128.454 73.718C139.295 73.599 150.075 73.7187 160.793 74.0773C157.081 75.5684 153.907 77.8443 151.271 80.9042C150.852 84.078 152.229 85.4556 155.403 85.0363C159.277 80.5244 164.187 78.2489 170.135 78.2094C172.306 77.1012 172.785 75.4843 171.572 73.3586C176.363 73.3586 181.154 73.3586 185.945 73.3586C185.945 73.4783 185.945 73.5983 185.945 73.718C183.418 73.5994 180.903 73.719 178.399 74.0773C180.831 87.1742 180.173 100.11 176.423 112.883C171.406 126.283 162.004 134.966 148.217 138.933C140.087 141.118 131.822 141.837 123.424 141.089C120.901 139.947 118.386 138.809 115.879 137.676C115.372 136.943 114.653 136.584 113.723 136.598C102.611 129.125 95.0653 118.945 91.0859 106.056C85.1849 105.473 80.8131 102.599 77.971 97.4326C74.6146 85.5156 78.986 78.2097 91.0859 75.5145C91.3992 74.8139 91.6389 74.0952 91.8045 73.3586Z" fill="#FEC88B"/>
<path fill-rule="evenodd" clip-rule="evenodd" d="M92.5231 73.3586C95.9966 73.3586 99.4697 73.3586 102.943 73.3586C99.7683 80.4267 96.5945 87.4933 93.4214 94.5581C92.6999 87.5113 92.4003 80.4447 92.5231 73.3586Z" fill="#3F2C50"/>
<path fill-rule="evenodd" clip-rule="evenodd" d="M127.736 73.3586C138.994 73.3586 150.253 73.3586 161.511 73.3586C161.392 73.718 161.152 73.9576 160.793 74.0773C150.075 73.7187 139.295 73.599 128.454 73.718C128.098 73.7798 127.859 73.6598 127.736 73.3586Z" fill="#C2B198"/>
<path fill-rule="evenodd" clip-rule="evenodd" d="M193.49 73.3586C193.73 73.3586 193.969 73.3586 194.209 73.3586C194.218 74.6026 194.697 75.5609 195.646 76.2331C195.224 76.1545 194.864 76.2741 194.568 76.5925C196.101 84.5595 196.4 92.584 195.466 100.666C195.23 102.566 194.811 104.422 194.209 106.236C194.234 106.511 194.353 106.69 194.568 106.775C190.54 119.627 182.875 129.687 171.572 136.957C170.672 137.13 169.834 137.489 169.057 138.035C167.073 142.235 163.959 145.289 159.715 147.197C149.07 151.333 138.29 151.692 127.376 148.275C123.269 146.736 119.856 144.281 117.136 140.91C116.51 139.9 116.091 138.822 115.878 137.676C118.386 138.809 120.901 139.947 123.424 141.089C131.822 141.837 140.086 141.118 148.217 138.933C162.004 134.966 171.406 126.283 176.423 112.883C180.172 100.11 180.831 87.1742 178.399 74.0773C180.903 73.719 183.418 73.5994 185.944 73.718C188.207 79.3628 190.303 85.1118 192.232 90.965C192.665 89.4501 192.904 87.8932 192.951 86.2939C193.182 81.9832 193.362 77.6715 193.49 73.3586Z" fill="#FBBA81"/>
<path fill-rule="evenodd" clip-rule="evenodd" d="M185.945 73.718C185.945 73.5983 185.945 73.4783 185.945 73.3586C188.46 73.3586 190.975 73.3586 193.49 73.3586C193.362 77.6715 193.182 81.9832 192.951 86.2939C192.904 87.8932 192.665 89.4501 192.233 90.965C190.303 85.1118 188.207 79.3628 185.945 73.718Z" fill="#3F2C50"/>
<path opacity="0.999" fill-rule="evenodd" clip-rule="evenodd" d="M195.646 76.2331C197.406 76.3136 199.082 76.7329 200.676 77.4907C207.531 81.6864 209.986 87.7347 208.042 95.636C205.773 101.738 201.401 105.151 194.927 105.876C194.657 106.118 194.537 106.417 194.568 106.775C194.354 106.69 194.234 106.511 194.209 106.236C194.811 104.422 195.23 102.566 195.466 100.666C196.401 92.584 196.101 84.5595 194.568 76.5924C194.864 76.2741 195.224 76.1544 195.646 76.2331Z" fill="#FEC88B"/>
<path fill-rule="evenodd" clip-rule="evenodd" d="M123.424 82.3414C128.927 82.2746 131.023 84.9095 129.712 90.2463C126.756 93.9354 123.642 94.0551 120.37 90.6057C118.778 86.848 119.796 84.0931 123.424 82.3414Z" fill="#343231"/>
<path fill-rule="evenodd" clip-rule="evenodd" d="M160.793 83.0601C166.642 82.6663 168.857 85.3015 167.44 90.965C164.988 93.7795 162.173 94.1988 158.996 92.2226C156.602 88.5113 157.201 85.4571 160.793 83.0601Z" fill="#323130"/>
<path fill-rule="evenodd" clip-rule="evenodd" d="M170.135 113.242C170.684 113.248 170.863 113.488 170.674 113.961C168.34 116.657 165.406 118.394 161.871 119.171C153.996 121.462 145.971 122.779 137.797 123.123C148.627 119.852 159.407 116.558 170.135 113.242Z" fill="#F8A370"/>
<path opacity="0.996" fill-rule="evenodd" clip-rule="evenodd" d="M47.2496 124.74C47.978 124.682 48.6966 124.742 49.4055 124.92C51.2671 126.674 53.004 128.53 54.6155 130.489C54.8437 131.257 54.7237 131.975 54.2562 132.645C46.4114 140.011 38.5661 147.377 30.7212 154.743C30.0026 154.983 29.284 154.983 28.5654 154.743C26.8703 152.852 25.1337 150.996 23.3553 149.174C23.1273 148.407 23.247 147.688 23.7146 147.018C31.6307 139.64 39.4759 132.214 47.2496 124.74Z" fill="#6ABCFF"/>
<path opacity="0.993" fill-rule="evenodd" clip-rule="evenodd" d="M245.231 132.645C246.42 133.713 247.617 134.791 248.824 135.879C252.765 139.76 256.778 143.592 260.861 147.377C261.101 147.976 261.101 148.575 260.861 149.174C259.256 151.138 257.52 152.995 255.651 154.743C254.933 154.983 254.214 154.983 253.495 154.743C245.656 147.443 237.871 140.077 230.14 132.645C229.832 132.201 229.593 131.722 229.421 131.208C231.151 129.059 232.947 126.963 234.811 124.92C235.53 124.68 236.248 124.68 236.967 124.92C239.783 127.437 242.538 130.012 245.231 132.645Z" fill="#6ABCFF"/>
<path opacity="0.997" fill-rule="evenodd" clip-rule="evenodd" d="M54.7953 152.407C53.6803 153.098 52.6024 153.877 51.5615 154.743C50.9718 155.149 50.6125 155.688 50.4835 156.36C45.6457 160.778 40.855 165.269 36.111 169.834C35.2726 170.553 34.4342 170.553 33.5958 169.834C31.2188 167.413 28.8832 164.958 26.5892 162.468C26.3497 161.869 26.3497 161.271 26.5892 160.672C37.679 149.94 48.8778 139.341 60.185 128.872C60.9036 128.633 61.6222 128.633 62.3409 128.872C64.5452 131.437 66.8808 133.892 69.3475 136.238C69.5871 136.957 69.5871 137.676 69.3475 138.394C64.4252 143.018 59.5745 147.689 54.7953 152.407Z" fill="#229CFF"/>
<path opacity="0.997" fill-rule="evenodd" clip-rule="evenodd" d="M233.733 156.36C232.783 154.691 231.465 153.373 229.781 152.407C224.773 147.82 219.802 143.149 214.869 138.394C214.616 137.506 214.735 136.668 215.229 135.879C217.276 133.951 219.193 131.915 220.978 129.771C221.772 128.768 222.79 128.469 224.032 128.872C235.23 139.353 246.429 149.832 257.628 160.312C257.867 161.031 257.867 161.75 257.628 162.468C255.215 165.42 252.521 168.054 249.543 170.373C248.665 169.918 247.827 169.379 247.028 168.756C242.643 164.55 238.212 160.418 233.733 156.36Z" fill="#229CFF"/>
<path fill-rule="evenodd" clip-rule="evenodd" d="M113.723 136.598C114.653 136.584 115.371 136.943 115.878 137.676C116.091 138.822 116.51 139.9 117.136 140.909C119.856 144.281 123.269 146.736 127.376 148.275C138.29 151.692 149.07 151.333 159.715 147.197C163.959 145.289 167.073 142.235 169.057 138.035C169.834 137.489 170.672 137.129 171.572 136.957C174.473 137.443 177.347 138.042 180.195 138.754C180.22 139.278 180.1 139.757 179.836 140.191C177.662 143.102 176.045 146.336 174.985 149.892C173.261 155.633 172.483 161.501 172.65 167.499C172.374 167.773 172.194 168.132 172.111 168.577C161.515 164.649 150.556 162.733 139.234 162.828C137.1 158.65 133.986 157.752 129.892 160.133C128.437 161.426 127.838 163.043 128.095 164.983C127.819 164.709 127.639 164.35 127.556 163.906C122.395 165.087 117.305 166.524 112.285 168.217C112.4 166.47 112.28 164.793 111.926 163.187C111.764 156.689 110.387 150.461 107.794 144.503C107.087 142.908 106.188 141.47 105.099 140.191C104.835 139.757 104.716 139.278 104.74 138.754C107.756 138.089 110.75 137.371 113.723 136.598Z" fill="#58D0F5"/>
<path opacity="0.999" fill-rule="evenodd" clip-rule="evenodd" d="M105.099 140.191C106.189 141.47 107.087 142.908 107.794 144.503C110.387 150.461 111.764 156.689 111.926 163.187C112.036 165.078 111.916 166.934 111.567 168.756C107.294 170.413 103.222 172.45 99.3501 174.865C94.5148 178.088 89.8437 181.501 85.3368 185.105C84.7418 184.401 84.1429 183.682 83.5403 182.949C85.0228 176.093 87.8973 169.925 92.1638 164.444C88.7988 152.188 93.1106 144.103 105.099 140.191Z" fill="#FBBA82"/>
<path fill-rule="evenodd" clip-rule="evenodd" d="M166.901 138.394C167.279 138.341 167.638 138.4 167.979 138.574C154.676 145.089 140.902 146.287 126.658 142.167C129.296 142.367 131.93 142.726 134.563 143.245C142.812 143.933 150.956 143.334 158.996 141.449C161.818 140.809 164.453 139.791 166.901 138.394Z" fill="#FFC78A"/>
<path opacity="0.999" fill-rule="evenodd" clip-rule="evenodd" d="M179.836 140.191C188.741 142.508 193.412 148.257 193.849 157.438C193.501 159.965 193.202 162.48 192.951 164.983C196.993 170.196 199.688 176.065 201.036 182.59C192.116 176.873 182.655 172.202 172.65 168.577C172.65 168.217 172.65 167.858 172.65 167.499C172.483 161.501 173.261 155.633 174.985 149.892C176.045 146.336 177.662 143.102 179.836 140.191Z" fill="#FBBA82"/>
<path opacity="0.983" fill-rule="evenodd" clip-rule="evenodd" d="M54.7953 152.407C57.0708 154.803 59.3467 157.198 61.6222 159.594C60.1958 161.017 58.6385 162.334 56.9512 163.546C54.9261 161.041 52.7702 158.646 50.4835 156.36C50.6125 155.688 50.9718 155.149 51.5615 154.743C52.6024 153.877 53.6803 153.098 54.7953 152.407Z" fill="#B1B1B1"/>
<path opacity="0.987" fill-rule="evenodd" clip-rule="evenodd" d="M229.781 152.407C231.465 153.373 232.783 154.691 233.733 156.36C231.444 158.648 229.288 161.044 227.266 163.546C225.627 162.311 224.071 160.993 222.594 159.594C224.86 157.088 227.256 154.693 229.781 152.407Z" fill="#B1B1B1"/>
<path opacity="0.989" fill-rule="evenodd" clip-rule="evenodd" d="M81.7438 168.936C79.9576 165.317 77.4425 162.262 74.1982 159.773C70.4538 157.823 66.621 157.643 62.7002 159.234C66.3566 156.526 70.4287 155.748 74.9168 156.899C81.3741 158.62 83.6496 162.632 81.7438 168.936Z" fill="#FCB377"/>
<path opacity="0.988" fill-rule="evenodd" clip-rule="evenodd" d="M221.517 159.234C215.452 156.873 210.362 158.19 206.246 163.187C205.017 164.829 203.879 166.506 202.832 168.217C201.143 165.177 201.502 162.363 203.91 159.773C209.704 155.466 215.573 155.286 221.517 159.234Z" fill="#FDB377"/>
<path fill-rule="evenodd" clip-rule="evenodd" d="M81.7438 168.936C82.7768 171.004 83.6154 173.16 84.2589 175.404C83.5583 177.388 82.72 179.304 81.7438 181.153C80.4876 182.704 79.4097 184.381 78.5099 186.183C77.6113 187.358 76.5334 188.376 75.2761 189.237C71.7444 191.417 68.271 191.297 64.856 188.878C59.1092 184.268 54.7974 178.579 51.9208 171.81C53.1457 168.758 54.8226 166.003 56.9512 163.546C58.6385 162.334 60.1958 161.017 61.6222 159.594C61.9424 159.375 62.3017 159.255 62.7002 159.234C66.621 157.643 70.4538 157.823 74.1982 159.773C77.4424 162.262 79.9576 165.317 81.7438 168.936Z" fill="#FEC88B"/>
<path fill-rule="evenodd" clip-rule="evenodd" d="M221.517 159.234C221.915 159.255 222.274 159.375 222.594 159.594C224.071 160.993 225.627 162.311 227.266 163.546C229.516 165.924 231.193 168.679 232.296 171.81C229.537 178.698 225.226 184.387 219.361 188.878C215.953 191.333 212.479 191.453 208.941 189.237C207.91 188.145 206.832 187.128 205.707 186.183C204.807 184.381 203.729 182.704 202.473 181.153C201.639 179.244 200.8 177.328 199.958 175.404C200.723 172.918 201.681 170.523 202.832 168.217C203.879 166.506 205.017 164.829 206.246 163.187C210.362 158.19 215.452 156.873 221.517 159.234Z" fill="#FEC88B"/>
<path opacity="0.999" fill-rule="evenodd" clip-rule="evenodd" d="M139.234 162.828C150.556 162.733 161.515 164.649 172.111 168.577C172.194 168.132 172.374 167.773 172.65 167.499C172.65 167.858 172.65 168.217 172.65 168.577C172.562 172.723 172.801 176.795 173.369 180.793C172.301 182.155 172.541 183.233 174.087 184.027C173.858 184.242 173.738 184.541 173.728 184.925C174.084 186.407 174.324 187.904 174.447 189.417C172.771 191.153 171.154 192.949 169.596 194.806C169.356 195.285 169.356 195.765 169.596 196.244C172.483 199.191 175.417 202.065 178.399 204.867C178.847 207.033 179.566 209.069 180.555 210.976C180.675 211.694 180.795 212.413 180.914 213.131C159.116 213.131 137.318 213.131 115.519 213.131C111.567 213.131 107.614 213.131 103.662 213.131C103.668 212.389 103.788 211.671 104.021 210.976C104.945 208.922 105.664 206.766 106.177 204.508C108.921 201.825 111.735 199.19 114.621 196.603C114.861 195.884 114.861 195.166 114.621 194.447C112.931 192.818 111.314 191.141 109.77 189.417C110.46 187.605 110.819 185.689 110.848 183.668C111.604 182.919 111.724 182.081 111.207 181.153C111.802 176.913 112.161 172.602 112.285 168.217C117.305 166.524 122.395 165.087 127.556 163.906C127.64 164.35 127.819 164.709 128.095 164.983C129.845 170.773 131.702 176.522 133.665 182.23C135.296 177.311 136.973 172.401 138.695 167.499C139.081 165.964 139.261 164.407 139.234 162.828Z" fill="#6ED4F4"/>
<path fill-rule="evenodd" clip-rule="evenodd" d="M111.926 163.187C112.28 164.793 112.4 166.47 112.285 168.217C112.161 172.602 111.802 176.913 111.207 181.153C108.884 178.768 106.608 176.313 104.381 173.787C103.782 173.547 103.183 173.547 102.584 173.787C97.4925 178.339 92.4621 182.951 87.4928 187.62C86.7742 186.782 86.0555 185.943 85.3369 185.105C89.8438 181.501 94.5148 178.088 99.3501 174.865C103.222 172.45 107.294 170.413 111.567 168.756C111.916 166.934 112.036 165.078 111.926 163.187Z" fill="#FCC68B"/>
<path fill-rule="evenodd" clip-rule="evenodd" d="M172.65 168.577C182.655 172.202 192.116 176.873 201.036 182.59C199.838 184.506 198.281 186.063 196.365 187.261C191.527 182.843 186.736 178.352 181.992 173.787C181.393 173.547 180.794 173.547 180.196 173.787C177.837 176.084 175.561 178.42 173.369 180.793C172.801 176.795 172.562 172.723 172.65 168.577Z" fill="#FDC78B"/>
<path opacity="0.999" fill-rule="evenodd" clip-rule="evenodd" d="M111.207 181.153C111.724 182.081 111.604 182.919 110.848 183.668C100.926 192.524 91.2245 201.627 81.7437 210.976C80.453 212.227 79.1354 213.485 77.7912 214.748C77.0726 214.988 76.354 214.988 75.6354 214.748C73.7906 212.544 71.8144 210.448 69.7067 208.46C69.1199 207.759 68.701 206.98 68.4491 206.125C68.5091 205.826 68.5687 205.526 68.6288 205.227C72.9534 201.08 77.3252 197.008 81.7437 193.01C82.3427 192.531 82.9413 192.052 83.5402 191.573C84.9581 190.394 86.2753 189.077 87.4927 187.62C92.462 182.951 97.4924 178.34 102.584 173.787C103.183 173.547 103.781 173.547 104.38 173.787C106.608 176.313 108.884 178.768 111.207 181.153Z" fill="#229CFF"/>
<path opacity="0.999" fill-rule="evenodd" clip-rule="evenodd" d="M196.365 187.261C197.792 188.568 199.23 189.886 200.676 191.213C201.301 192.199 202.14 192.918 203.192 193.369C207.252 197.369 211.384 201.322 215.588 205.227C215.828 205.945 215.828 206.664 215.588 207.382C213.121 209.729 210.786 212.184 208.581 214.748C207.863 214.988 207.144 214.988 206.425 214.748C205.145 213.407 203.828 212.15 202.473 210.976C193.12 201.862 183.658 192.879 174.087 184.027C172.541 183.233 172.301 182.155 173.369 180.793C175.561 178.42 177.837 176.084 180.195 173.787C180.794 173.547 181.393 173.547 181.992 173.787C186.736 178.352 191.527 182.843 196.365 187.261Z" fill="#229CFF"/>
<path opacity="0.993" fill-rule="evenodd" clip-rule="evenodd" d="M202.473 181.153C203.729 182.704 204.807 184.381 205.707 186.183C204.748 187.381 203.671 188.458 202.473 189.417C202.004 190.126 201.405 190.724 200.676 191.213C199.23 189.886 197.793 188.568 196.365 187.261C198.281 186.063 199.838 184.506 201.036 182.59C201.635 182.231 202.114 181.752 202.473 181.153Z" fill="#B4B3B2"/>
<path opacity="0.99" fill-rule="evenodd" clip-rule="evenodd" d="M81.7437 181.153C82.472 181.642 83.071 182.24 83.5403 182.949C84.1428 183.682 84.7418 184.401 85.3368 185.105C86.0555 185.943 86.7741 186.782 87.4927 187.62C86.2754 189.077 84.9581 190.394 83.5403 191.573C83.3319 190.765 82.8529 190.166 82.103 189.776C80.7757 188.688 79.5781 187.491 78.5099 186.183C79.4096 184.381 80.4875 182.704 81.7437 181.153Z" fill="#B2B1B0"/>
<path fill-rule="evenodd" clip-rule="evenodd" d="M110.848 183.668C110.819 185.689 110.46 187.605 109.77 189.417C109.207 189.067 108.608 189.007 107.974 189.237C101.277 195.334 94.6902 201.562 88.2114 207.921C86.9319 209.026 85.6143 210.043 84.259 210.976C83.4207 210.976 82.5821 210.976 81.7438 210.976C91.2246 201.627 100.926 192.524 110.848 183.668Z" fill="#FAC489"/>
<path fill-rule="evenodd" clip-rule="evenodd" d="M174.087 184.027C183.658 192.879 193.12 201.862 202.473 210.976C201.635 210.976 200.796 210.976 199.958 210.976C192.156 204.315 184.611 197.308 177.321 189.956C176.469 189.083 175.511 188.903 174.447 189.417C174.324 187.904 174.084 186.408 173.728 184.925C173.738 184.541 173.858 184.242 174.087 184.027Z" fill="#FAC489"/>
<path opacity="0.996" fill-rule="evenodd" clip-rule="evenodd" d="M109.77 189.417C111.314 191.141 112.931 192.818 114.621 194.447C114.86 195.166 114.86 195.884 114.621 196.603C111.735 199.19 108.921 201.825 106.177 204.508C103.892 206.674 101.616 208.83 99.35 210.976C97.3835 213.094 95.3473 215.13 93.2417 217.084C92.4616 217.803 91.6234 218.462 90.7265 219.06C89.8049 219.279 88.9662 219.099 88.2113 218.521C87.0425 216.811 85.6649 215.254 84.0792 213.85C83.3926 212.852 83.4522 211.894 84.2589 210.976C85.6142 210.044 86.9318 209.026 88.2113 207.921C94.6901 201.562 101.277 195.334 107.974 189.237C108.608 189.007 109.207 189.067 109.77 189.417Z" fill="#6ABCFF"/>
<path opacity="0.999" fill-rule="evenodd" clip-rule="evenodd" d="M199.958 210.976C200.616 211.693 200.796 212.531 200.497 213.491C198.718 215.313 196.982 217.169 195.287 219.06C194.987 219.12 194.688 219.18 194.388 219.24C193.533 218.988 192.755 218.569 192.053 217.982C189.695 215.564 187.299 213.228 184.867 210.976C182.726 208.943 180.57 206.907 178.399 204.867C175.417 202.065 172.483 199.191 169.596 196.244C169.356 195.765 169.356 195.285 169.596 194.806C171.154 192.949 172.771 191.153 174.446 189.417C175.511 188.903 176.469 189.083 177.321 189.956C184.611 197.308 192.156 204.315 199.958 210.976Z" fill="#6ABCFF"/>
<path opacity="0.997" fill-rule="evenodd" clip-rule="evenodd" d="M202.473 189.417C202.751 190.725 202.99 192.042 203.192 193.369C202.14 192.918 201.301 192.199 200.676 191.213C201.405 190.724 202.004 190.126 202.473 189.417Z" fill="#F6C087"/>
<path fill-rule="evenodd" clip-rule="evenodd" d="M82.1031 189.776C82.853 190.166 83.3319 190.765 83.5403 191.573C82.9414 192.052 82.3427 192.531 81.7438 193.01C81.8171 191.926 81.9367 190.848 82.1031 189.776Z" fill="#FBC48C"/>
<path fill-rule="evenodd" clip-rule="evenodd" d="M106.177 204.508C105.664 206.766 104.945 208.922 104.021 210.976C102.464 210.976 100.907 210.976 99.3501 210.976C101.616 208.83 103.892 206.674 106.177 204.508Z" fill="#FAC48A"/>
<path fill-rule="evenodd" clip-rule="evenodd" d="M178.399 204.867C180.57 206.907 182.726 208.943 184.867 210.976C183.429 210.976 181.992 210.976 180.555 210.976C179.566 209.069 178.847 207.033 178.399 204.867Z" fill="#FBC58A"/>
<path opacity="0.036" fill-rule="evenodd" clip-rule="evenodd" d="M99.35 210.976C100.907 210.976 102.464 210.976 104.021 210.976C103.788 211.671 103.668 212.389 103.662 213.131C100.272 214.661 96.7989 215.978 93.2417 217.084C95.3473 215.13 97.3835 213.094 99.35 210.976Z" fill="black"/>
</g>
<defs>
<clipPath id="clip0_3:125">
<rect width="272" height="248.285" fill="white" transform="translate(0 0.597717)"/>
</clipPath>
</defs>
</svg>
